<svg width="16" height="18" viewBox="0 0 16 18" fill="none" xmlns="http://www.w3.org/2000/svg">
<path d="M15.0713 7.12674L13.0341 3.23605C13.5943 2.93386 13.9678 2.29171 13.8999 1.53624C13.832 0.724104 13.2378 0.0630637 12.5078 0.0064032C12.1173 -0.0313705 11.7608 0.10084 11.4552 0.327482C10.7082 0.93186 9.79149 1.21516 8.89171 1.08295C8.14473 0.950747 7.36379 0.950747 6.61681 1.08295C5.70005 1.23405 4.7833 0.93186 4.05329 0.327482C3.76468 0.10084 3.40817 -0.0313705 3.00072 0.0064032C2.27071 0.0819505 1.67652 0.742991 1.60862 1.53624C1.54071 2.29171 1.9142 2.93386 2.47444 3.23605L0.437208 7.12674C-0.34373 8.59991 -0.0551228 10.4886 1.11628 11.584L7.75426 17.93L14.3922 11.584C15.5467 10.4886 15.8353 8.59991 15.0713 7.12674ZM4.68144 5.748C4.68144 5.61579 4.71539 5.48358 4.76632 5.38915C5.13981 5.50247 5.58121 5.5969 6.07354 5.65356C6.07354 5.69134 6.09052 5.72911 6.09052 5.748C6.09052 6.16351 5.78494 6.50347 5.39447 6.50347C5.004 6.50347 4.68144 6.18239 4.68144 5.748ZM8.85776 11.584C8.77287 11.6785 8.70497 11.754 8.62008 11.8296C8.3145 12.1129 7.14309 12.1129 6.83751 11.8296C6.75262 11.754 6.70169 11.6785 6.63378 11.6218C6.5489 11.5274 6.53192 11.3574 6.63378 11.2441L6.7696 11.093C6.90541 10.923 7.14309 10.8286 7.38077 10.8286H8.14473C8.39938 10.8286 8.63706 10.923 8.7559 11.093L8.84078 11.2063C8.95962 11.3196 8.95962 11.4707 8.85776 11.584ZM9.45195 10.8097C9.38404 10.9419 9.26521 11.0174 9.14637 11.0363C9.01055 11.0552 8.89171 10.9985 8.80683 10.8852C8.63706 10.6586 8.36543 10.5264 8.07682 10.5264C7.94101 10.5264 7.83914 10.4508 7.77124 10.3564C7.68635 10.4508 7.58449 10.5264 7.46565 10.5264C7.17704 10.5264 6.90541 10.6586 6.73564 10.8852C6.65076 10.9985 6.53192 11.0552 6.39611 11.0363C6.26029 11.0174 6.15843 10.9419 6.09052 10.8097C5.41144 9.44982 5.6661 8.14662 5.75098 7.73111C5.80191 7.48558 5.93773 7.27783 6.15843 7.1834C6.66774 6.91898 7.24495 6.78677 7.80519 6.76788C8.36543 6.78677 8.92567 6.91898 9.45195 7.1834C9.65567 7.27783 9.80847 7.48558 9.8594 7.73111C9.87638 8.14662 10.1141 9.43093 9.45195 10.8097ZM10.131 6.50347C9.74056 6.50347 9.43497 6.16351 9.43497 5.748C9.43497 5.71022 9.43497 5.67245 9.45195 5.65356C9.92731 5.5969 10.3687 5.50247 10.7592 5.38915C10.8101 5.50247 10.8441 5.61579 10.8441 5.748C10.8271 6.18239 10.5215 6.50347 10.131 6.50347Z" fill="#D93F3F"/>
</svg>
