<svg width="22" height="19" viewBox="0 0 22 19" fill="none" xmlns="http://www.w3.org/2000/svg">
<path d="M20.6226 1.63029C20.3545 2.21134 19.8669 2.67617 19.2558 2.93426L19.2382 2.94147C18.8841 3.09101 18.5051 3.16713 18.122 3.16713C17.3354 3.16713 16.0312 3.16713 16.0312 3.16713L15.3632 2.53361H6.01184L5.34375 3.16713H3.10436C2.77376 3.16713 2.4472 3.10294 2.14344 2.97795C1.51549 2.71355 1.01697 2.20435 0.743137 1.6107C0.409212 0.885976 0 0 0 0V3.0079C0 4.84562 1.57296 6.3356 3.51191 6.33335L5.34375 6.33088L1.33594 7.60083L2.45646 8.30934C3.03264 8.67351 3.7088 8.86764 4.40182 8.86764H5.34375V9.62209C5.34375 10.0315 5.45561 10.4344 5.6677 10.7907L6.42912 12.0679L7.5145 15.8683L7.3416 16.6173C7.1136 17.6038 7.77076 18.5794 8.8103 18.7987L8.86706 18.8107C10.0652 19.0631 11.3069 19.0631 12.5051 18.8107L12.5526 18.8012C13.6031 18.5796 14.26 17.6024 14.0322 16.6151C13.9353 16.1955 13.8603 15.8685 13.8603 15.8685L14.9456 12.0681L15.7071 10.7909C15.9192 10.4346 16.031 10.0317 16.031 9.62232V8.86786H16.9729C17.666 8.86786 18.3424 8.67396 18.9183 8.30957L20.0388 7.60106L16.0312 6.33403H17.8681C19.8054 6.33403 21.375 4.84562 21.375 3.0088V0L20.6226 1.63029ZM7.57387 10.7664C7.08035 10.7664 6.67969 10.3865 6.67969 9.91847V8.86539L7.27843 9.43539C7.17583 9.53584 7.11313 9.67299 7.11313 9.8241C7.11313 10.1344 7.37865 10.3862 7.70592 10.3862C7.86363 10.3862 8.0066 10.3277 8.11347 10.2311L8.6754 10.7664H7.57387ZM12.3357 17.8731L12.2883 17.8826C11.7639 17.9934 11.2245 18.0497 10.6877 18.0497C10.1491 18.0497 9.61068 17.9934 9.08556 17.8826L9.0288 17.8706C8.52957 17.7652 8.21227 17.2943 8.32152 16.82L8.4075 16.4011C8.47091 16.0915 8.75734 15.8683 9.0896 15.8683H12.2866C12.6189 15.8683 12.9046 16.0915 12.9687 16.4011L13.0539 16.8175C13.1639 17.2927 12.8416 17.7661 12.3357 17.8731ZM14.7003 9.92072C14.7003 10.3894 14.3004 10.7686 13.8061 10.7686H12.7048L13.2668 10.2333C13.3736 10.3306 13.5164 10.3885 13.6743 10.3885C14.0016 10.3885 14.2671 10.1367 14.2671 9.82636C14.2671 9.67524 14.2044 9.53899 14.1018 9.43764L14.7005 8.86764L14.7003 9.92072ZM10.0199 17.045V17.2139H9.33613C9.16038 17.2139 9.01788 17.0788 9.01788 16.9121V16.5822C9.01788 16.5061 9.09958 16.4545 9.17344 16.4838L9.79901 16.7308C9.93272 16.7838 10.0199 16.9076 10.0199 17.045ZM12.3576 16.5822V16.9121C12.3576 17.0788 12.2151 17.2139 12.0393 17.2139H11.3558V17.045C11.3558 16.9076 11.443 16.7838 11.5767 16.7308L12.2023 16.4838C12.2761 16.4545 12.3576 16.5061 12.3576 16.5822Z" fill="#38AD4B"/>
</svg>
