<svg width="16" height="15" viewBox="0 0 16 15" fill="none" xmlns="http://www.w3.org/2000/svg">
<path d="M6.01562 12.658L11.2656 9.28296L6.01562 5.90796V12.658ZM1.89062 14.908C1.47812 14.908 1.125 14.7611 0.83125 14.4673C0.5375 14.1736 0.390625 13.8205 0.390625 13.408V3.65796H4.89062V2.15796C4.89062 1.74546 5.0375 1.39233 5.33125 1.09858C5.625 0.804834 5.97812 0.657959 6.39062 0.657959H9.39062C9.80312 0.657959 10.1562 0.804834 10.45 1.09858C10.7437 1.39233 10.8906 1.74546 10.8906 2.15796V3.65796H15.3906V13.408C15.3906 13.8205 15.2437 14.1736 14.95 14.4673C14.6562 14.7611 14.3031 14.908 13.8906 14.908H1.89062ZM1.89062 13.408H13.8906V5.15796H1.89062V13.408ZM6.39062 3.65796H9.39062V2.15796H6.39062V3.65796Z" fill="white"/>
</svg>
