<svg width="18" height="18" viewBox="0 0 18 18" fill="none" xmlns="http://www.w3.org/2000/svg">
<path d="M9.00065 9.56291L6.43815 7.00041L5.25065 8.16708L9.00065 11.9171L12.7507 8.16708L11.5632 7.00041L9.00065 9.56291ZM9.00065 0.667077C10.1534 0.667077 11.2368 0.885827 12.2507 1.32333C13.2645 1.76083 14.1465 2.35458 14.8965 3.10458C15.6465 3.85458 16.2402 4.73652 16.6777 5.75041C17.1152 6.7643 17.334 7.84763 17.334 9.00041C17.334 10.1532 17.1152 11.2365 16.6777 12.2504C16.2402 13.2643 15.6465 14.1462 14.8965 14.8962C14.1465 15.6462 13.2645 16.24 12.2507 16.6775C11.2368 17.115 10.1534 17.3337 9.00065 17.3337C7.84787 17.3337 6.76454 17.115 5.75065 16.6775C4.73676 16.24 3.85482 15.6462 3.10482 14.8962C2.35482 14.1462 1.76107 13.2643 1.32357 12.2504C0.88607 11.2365 0.66732 10.1532 0.66732 9.00041C0.667319 7.84763 0.886069 6.7643 1.32357 5.75041C1.76107 4.73652 2.35482 3.85458 3.10482 3.10458C3.85482 2.35458 4.73676 1.76083 5.75065 1.32333C6.76454 0.885827 7.84787 0.667077 9.00065 0.667077Z" fill="#D93F3F"/>
</svg>
