<svg width="16" height="10" viewBox="0 0 16 10" fill="none" xmlns="http://www.w3.org/2000/svg">
<path d="M7.25 7.75H4.25C3.2125 7.75 2.32812 7.38438 1.59687 6.65313C0.865625 5.92188 0.5 5.0375 0.5 4C0.5 2.9625 0.865625 2.07812 1.59687 1.34687C2.32812 0.615625 3.2125 0.25 4.25 0.25H7.25V1.75H4.25C3.625 1.75 3.09375 1.96875 2.65625 2.40625C2.21875 2.84375 2 3.375 2 4C2 4.625 2.21875 5.15625 2.65625 5.59375C3.09375 6.03125 3.625 6.25 4.25 6.25H7.25V7.75ZM5 4.75V3.25H11V4.75H5ZM15.5 4H14C14 3.375 13.7812 2.84375 13.3438 2.40625C12.9062 1.96875 12.375 1.75 11.75 1.75H8.75V0.25H11.75C12.7875 0.25 13.6719 0.615625 14.4031 1.34687C15.1344 2.07812 15.5 2.9625 15.5 4ZM11.75 10V7.75H9.5V6.25H11.75V4H13.25V6.25H15.5V7.75H13.25V10H11.75Z" fill="white"/>
</svg>
