<svg width="18" height="18" viewBox="0 0 18 18" fill="none" xmlns="http://www.w3.org/2000/svg">
<path fill-rule="evenodd" clip-rule="evenodd" d="M12.805 11.3721H12.0267L11.7509 11.1129C12.933 9.76892 13.5438 7.93532 13.2089 5.98652C12.7459 3.31772 10.4604 1.18652 7.702 0.860124C3.5349 0.360924 0.0278395 3.77852 0.540107 7.83932C0.875051 10.5273 3.06204 12.7545 5.8007 13.2057C7.80052 13.5321 9.68211 12.9369 11.0613 11.7849L11.3273 12.0537V12.8121L15.5141 16.8921C15.918 17.2857 16.578 17.2857 16.9819 16.8921C17.3858 16.4985 17.3858 15.8553 16.9819 15.4617L12.805 11.3721ZM6.89404 11.3719C4.44107 11.3719 2.46096 9.44233 2.46096 7.05193C2.46096 4.66153 4.44107 2.73193 6.89404 2.73193C9.34702 2.73193 11.3271 4.66153 11.3271 7.05193C11.3271 9.44233 9.34702 11.3719 6.89404 11.3719Z" fill="#D6B468"/>
</svg>
