<svg width="13" height="16" viewBox="0 0 13 16" fill="none" xmlns="http://www.w3.org/2000/svg">
<path d="M5.25391 13.2505H6.75391V12.5005H7.50391C7.7164 12.5005 7.89453 12.4286 8.03828 12.2849C8.18203 12.1411 8.25391 11.963 8.25391 11.7505V9.50049C8.25391 9.28799 8.18203 9.10986 8.03828 8.96611C7.89453 8.82236 7.7164 8.75049 7.50391 8.75049H5.25391V8.00049H8.25391V6.50049H6.75391V5.75049H5.25391V6.50049H4.50391C4.29141 6.50049 4.11328 6.57236 3.96953 6.71611C3.82578 6.85986 3.75391 7.03799 3.75391 7.25049V9.50049C3.75391 9.71299 3.82578 9.89111 3.96953 10.0349C4.11328 10.1786 4.29141 10.2505 4.50391 10.2505H6.75391V11.0005H3.75391V12.5005H5.25391V13.2505ZM1.50391 15.5005C1.09141 15.5005 0.738281 15.3536 0.444531 15.0599C0.150781 14.7661 0.00390625 14.413 0.00390625 14.0005V2.00049C0.00390625 1.58799 0.150781 1.23486 0.444531 0.941113C0.738281 0.647363 1.09141 0.500488 1.50391 0.500488H7.50391L12.0039 5.00049V14.0005C12.0039 14.413 11.857 14.7661 11.5633 15.0599C11.2695 15.3536 10.9164 15.5005 10.5039 15.5005H1.50391ZM6.75391 5.00049V2.00049H1.50391V14.0005H10.5039V5.00049H6.75391Z" fill="white"/>
</svg>
