<svg width="18" height="18" viewBox="0 0 18 18" fill="none" xmlns="http://www.w3.org/2000/svg">
<path d="M8.99935 8.43709L11.5618 10.9996L12.7493 9.83292L8.99935 6.08293L5.24935 9.83292L6.43685 10.9996L8.99935 8.43709ZM8.99935 17.3329C7.84657 17.3329 6.76324 17.1142 5.74935 16.6767C4.73546 16.2392 3.85352 15.6454 3.10352 14.8954C2.35352 14.1454 1.75977 13.2635 1.32227 12.2496C0.884766 11.2357 0.666016 10.1524 0.666016 8.99959C0.666016 7.84681 0.884766 6.76348 1.32227 5.74959C1.75977 4.7357 2.35352 3.85376 3.10352 3.10376C3.85352 2.35376 4.73546 1.76001 5.74935 1.32251C6.76324 0.88501 7.84657 0.66626 8.99935 0.66626C10.1521 0.66626 11.2355 0.88501 12.2493 1.32251C13.2632 1.76001 14.1452 2.35376 14.8952 3.10376C15.6452 3.85376 16.2389 4.7357 16.6764 5.74959C17.1139 6.76348 17.3327 7.84681 17.3327 8.99959C17.3327 10.1524 17.1139 11.2357 16.6764 12.2496C16.2389 13.2635 15.6452 14.1454 14.8952 14.8954C14.1452 15.6454 13.2632 16.2392 12.2493 16.6767C11.2355 17.1142 10.1521 17.3329 8.99935 17.3329Z" fill="#0B9321"/>
</svg>
