<svg width="36" height="46" viewBox="0 0 36 46" fill="none" xmlns="http://www.w3.org/2000/svg">
<path d="M34.6069 15.9454C34.3541 16.145 29.8916 18.7041 29.8916 24.3945C29.8916 30.9764 35.57 33.3048 35.74 33.3625C35.7138 33.5044 34.8379 36.5514 32.7461 39.6561C30.8808 42.3882 28.9328 45.1159 25.9694 45.1159C23.006 45.1159 22.2433 43.3639 18.8223 43.3639C15.4885 43.3639 14.3031 45.1735 11.5925 45.1735C8.88179 45.1735 6.99043 42.6454 4.8158 39.5408C2.29689 35.895 0.261719 30.2312 0.261719 24.8557C0.261719 16.2337 5.7702 11.6609 11.1915 11.6609C14.0721 11.6609 16.4734 13.5858 18.2819 13.5858C20.0033 13.5858 22.6878 11.5456 25.965 11.5456C27.2071 11.5456 31.6696 11.6609 34.6069 15.9454ZM24.4092 7.89543C25.7646 6.25884 26.7233 3.988 26.7233 1.71716C26.7233 1.40226 26.6972 1.08293 26.6405 0.825684C24.4354 0.909953 21.8119 2.32036 20.23 4.18759C18.9879 5.6246 17.8287 7.89543 17.8287 10.1973C17.8287 10.5433 17.8854 10.8892 17.9115 11.0001C18.051 11.0267 18.2776 11.0578 18.5042 11.0578C20.4827 11.0578 22.9711 9.70944 24.4092 7.89543Z" fill="#1A1A1A"/>
</svg>
