<svg width="20" height="16" viewBox="0 0 20 16" fill="none" xmlns="http://www.w3.org/2000/svg">
<path d="M14.9609 11.4792L12.5859 9.125L13.7734 7.95833L14.9609 9.125L17.8984 6.1875L19.0859 7.35417L14.9609 11.4792ZM9.16927 15.5L6.52344 13.125C5.52344 12.2222 4.6658 11.4167 3.95052 10.7083C3.23524 10 2.64497 9.33333 2.17969 8.70833C1.71441 8.08333 1.37413 7.47917 1.15885 6.89583C0.943576 6.3125 0.835938 5.70139 0.835938 5.0625C0.835938 3.75694 1.27344 2.67014 2.14844 1.80208C3.02344 0.934028 4.11371 0.5 5.41927 0.5C6.14149 0.5 6.82899 0.652778 7.48177 0.958333C8.13455 1.26389 8.69705 1.69444 9.16927 2.25C9.64149 1.69444 10.204 1.26389 10.8568 0.958333C11.5095 0.652778 12.197 0.5 12.9193 0.5C14.0443 0.5 14.9887 0.815972 15.7526 1.44792C16.5165 2.07986 17.0373 2.875 17.3151 3.83333H15.5443C15.2943 3.27778 14.9262 2.86111 14.4401 2.58333C13.954 2.30556 13.447 2.16667 12.9193 2.16667C12.2109 2.16667 11.5998 2.35764 11.0859 2.73958C10.572 3.12153 10.0929 3.625 9.64844 4.25H8.6901C8.25955 3.625 7.76996 3.12153 7.22135 2.73958C6.67274 2.35764 6.07205 2.16667 5.41927 2.16667C4.6276 2.16667 3.94358 2.44097 3.36719 2.98958C2.7908 3.53819 2.5026 4.22917 2.5026 5.0625C2.5026 5.52083 2.59983 5.98611 2.79427 6.45833C2.98872 6.93056 3.33594 7.47569 3.83594 8.09375C4.33594 8.71181 5.01649 9.43403 5.8776 10.2604C6.73871 11.0868 7.83594 12.0833 9.16927 13.25C9.53038 12.9306 9.95399 12.5625 10.4401 12.1458C10.9262 11.7292 11.3151 11.3819 11.6068 11.1042L12.7943 12.2917C12.4887 12.5694 12.0998 12.9132 11.6276 13.3229C11.1554 13.7326 10.7387 14.0972 10.3776 14.4167L9.16927 15.5Z" fill="#B58426"/>
</svg>
